<svg width="81" height="81" viewBox="0 0 81 81" fill="none" xmlns="http://www.w3.org/2000/svg">
<g clip-path="url(#clip0)">
<path d="M59.3571 15.4059H22.1194L26.3366 2.51386C26.827 1.01425 28.226 0 29.8039 0H51.6728C53.2505 0 54.6496 1.01425 55.14 2.51386L59.3571 15.4059Z" fill="url(#paint0_linear)"/>
<path d="M22.1194 15.4058H59.3571L56.0841 5.39996H25.3924L22.1194 15.4058Z" fill="url(#paint1_linear)"/>
<path d="M54.4946 14.9823H26.9819L30.0977 5.45732C30.4601 4.34937 31.4937 3.60004 32.6595 3.60004H48.8169C49.9827 3.60004 51.0163 4.34937 51.3788 5.45732L54.4946 14.9823Z" fill="url(#paint2_linear)"/>
<path d="M54.4946 14.9823H26.9819L30.0977 5.45732C30.4601 4.34937 31.4937 3.60004 32.6595 3.60004H48.8169C49.9827 3.60004 51.0163 4.34937 51.3788 5.45732L54.4946 14.9823Z" fill="url(#paint3_linear)"/>
<path d="M26.9819 14.9823H54.4946L52.3298 8.36475H29.1467L26.9819 14.9823Z" fill="url(#paint4_linear)"/>
<path d="M20.6471 16.2791H8.35777V10.8775C8.35777 9.38745 9.56578 8.17944 11.0559 8.17944H17.9488C19.4389 8.17944 20.6469 9.38745 20.6469 10.8775V16.2791H20.6471Z" fill="url(#paint5_linear)"/>
<path d="M20.6471 16.2791H8.35777V10.8775C8.35777 9.38745 9.56578 8.17944 11.0559 8.17944H17.9488C19.4389 8.17944 20.6469 9.38745 20.6469 10.8775V16.2791H20.6471Z" fill="url(#paint6_linear)"/>
<path d="M64.071 81H16.929C7.57936 81 -1.52588e-05 73.4207 -1.52588e-05 64.071V30.2702C-1.52588e-05 20.9206 7.57936 13.3412 16.929 13.3412H64.071C73.4206 13.3412 81 20.9206 81 30.2702V64.071C81 73.4207 73.4206 81 64.071 81Z" fill="url(#paint7_linear)"/>
<path d="M40.8176 19.0204C25.1205 19.0204 12.3498 31.7911 12.3498 47.4882C12.3498 55.8128 15.9417 63.3139 21.6567 68.5241L34.1326 81H64.071C73.4206 81 81 73.4206 81 64.071V47.4738L61.8534 28.3271C56.6431 22.6122 49.1421 19.0204 40.8176 19.0204Z" fill="url(#paint8_linear)"/>
<path d="M-1.52588e-05 54.735V64.071C-1.52588e-05 73.4207 7.57936 81 16.929 81H64.071C73.4206 81 81 73.4207 81 64.071V54.735H-1.52588e-05Z" fill="url(#paint9_linear)"/>
<path d="M40.5 67.1823C51.5522 67.1823 60.5118 58.2228 60.5118 47.1706C60.5118 36.1184 51.5522 27.1588 40.5 27.1588C29.4478 27.1588 20.4882 36.1184 20.4882 47.1706C20.4882 58.2228 29.4478 67.1823 40.5 67.1823Z" fill="url(#paint10_linear)"/>
<path d="M40.5 67.1823C51.5522 67.1823 60.5118 58.2228 60.5118 47.1706C60.5118 36.1184 51.5522 27.1588 40.5 27.1588C29.4478 27.1588 20.4882 36.1184 20.4882 47.1706C20.4882 58.2228 29.4478 67.1823 40.5 67.1823Z" fill="url(#paint11_linear)"/>
<path d="M20.9442 51.4213C22.8985 60.4207 30.9239 67.1823 40.5 67.1823C50.0761 67.1823 58.1015 60.4207 60.0558 51.4213H20.9442Z" fill="url(#paint12_linear)"/>
<path d="M50.8693 36.8013C48.2158 34.1472 44.5492 32.5058 40.5 32.5058C36.4508 32.5058 32.7842 34.1472 30.1308 36.8013C27.4767 39.4548 25.8352 43.1214 25.8352 47.1706C25.8352 55.2697 32.401 61.8353 40.4999 61.8353C44.5491 61.8353 48.2157 60.1938 50.8691 57.5397C53.5232 54.8863 55.1647 51.2197 55.1647 47.1705C55.1647 43.1212 53.5232 39.4548 50.8693 36.8013Z" fill="url(#paint13_linear)"/>
<path d="M30.1307 57.5399C32.7842 60.194 36.4508 61.8354 40.5 61.8354C44.5492 61.8354 48.2158 60.194 50.8693 57.5399C53.5234 54.8864 55.1648 51.2198 55.1648 47.1706C55.1648 39.0716 48.5991 32.506 40.5002 32.506C36.451 32.506 32.7844 34.1474 30.1309 36.8015C27.4768 39.455 25.8354 43.1216 25.8354 47.1708C25.8354 51.22 27.4768 54.8864 30.1307 57.5399Z" fill="url(#paint14_linear)"/>
<path d="M32.8635 54.8072C34.8176 56.7618 37.5179 57.9706 40.5 57.9706C43.4821 57.9706 46.1824 56.7618 48.1366 54.8072C50.0912 52.853 51.3 50.1527 51.3 47.1706C51.3 41.206 46.4646 36.3706 40.5 36.3706C37.5179 36.3706 34.8176 37.5794 32.8635 39.5341C30.9088 41.4882 29.7 44.1885 29.7 47.1706C29.7 50.1527 30.9088 52.853 32.8635 54.8072Z" fill="url(#paint15_linear)"/>
<path d="M40.5 75.6385C24.8028 75.6385 12.0322 62.8678 12.0322 47.1706C12.0322 31.4734 24.8028 18.7028 40.5 18.7028C56.1972 18.7028 68.9679 31.4734 68.9679 47.1706C68.9679 62.8678 56.1972 75.6385 40.5 75.6385ZM40.5 25.8498C28.7437 25.8498 19.1792 35.4143 19.1792 47.1706C19.1792 58.9269 28.7437 68.4914 40.5 68.4914C52.2563 68.4914 61.8208 58.9269 61.8208 47.1706C61.8208 35.4143 52.2563 25.8498 40.5 25.8498Z" fill="url(#paint16_linear)"/>
<path d="M40.5 22.2121C54.2621 22.2121 65.4585 33.4084 65.4585 47.1706C65.4585 60.9328 54.2621 72.1291 40.5 72.1291C26.738 72.1291 15.5415 60.9326 15.5415 47.1706C15.5415 33.4085 26.738 22.2121 40.5 22.2121ZM40.5 65.863C50.807 65.863 59.1924 57.4776 59.1924 47.1706C59.1924 36.8636 50.807 28.4782 40.5 28.4782C30.193 28.4782 21.8076 36.8636 21.8076 47.1706C21.8076 57.4776 30.193 65.863 40.5 65.863Z" fill="url(#paint17_linear)"/>
<path d="M59.1905 47.3294C59.1046 57.5635 50.754 65.863 40.5 65.863C30.246 65.863 21.8954 57.5635 21.8095 47.3294H12.0342C12.1201 62.9537 24.8559 75.6384 40.5 75.6384C56.1441 75.6384 68.8799 62.9537 68.9658 47.3294H59.1905Z" fill="url(#paint18_linear)"/>
<path d="M68.0294 28.3235C70.6608 28.3235 72.7941 26.1902 72.7941 23.5588C72.7941 20.9273 70.6608 18.7941 68.0294 18.7941C65.3979 18.7941 63.2646 20.9273 63.2646 23.5588C63.2646 26.1902 65.3979 28.3235 68.0294 28.3235Z" fill="url(#paint19_linear)"/>
</g>
<defs>
<linearGradient id="paint0_linear" x1="37.617" y1="7.66848" x2="49.0436" y2="19.0949" gradientUnits="userSpaceOnUse">
<stop stop-color="#5A5A5A"/>
<stop offset="1" stop-color="#464646"/>
</linearGradient>
<linearGradient id="paint1_linear" x1="40.7382" y1="7.19991" x2="40.7382" y2="13.5565" gradientUnits="userSpaceOnUse">
<stop stop-color="#464646" stop-opacity="0"/>
<stop offset="0.3321" stop-color="#3E3E3E" stop-opacity="0.332"/>
<stop offset="0.85" stop-color="#282828" stop-opacity="0.85"/>
<stop offset="1" stop-color="#202020"/>
</linearGradient>
<linearGradient id="paint2_linear" x1="35.8126" y1="6.64611" x2="45.6309" y2="16.4644" gradientUnits="userSpaceOnUse">
<stop stop-color="#EEF4FF"/>
<stop offset="1" stop-color="#CFE7FD"/>
</linearGradient>
<linearGradient id="paint3_linear" x1="40.7382" y1="9.10581" x2="40.7382" y2="13.2367" gradientUnits="userSpaceOnUse">
<stop stop-color="#8AAADC" stop-opacity="0"/>
<stop offset="1" stop-color="#8AAADC"/>
</linearGradient>
<linearGradient id="paint4_linear" x1="41.0454" y1="13.7222" x2="45.4925" y2="1.96924" gradientUnits="userSpaceOnUse">
<stop stop-color="#8AAADC" stop-opacity="0"/>
<stop offset="1" stop-color="#8AAADC"/>
</linearGradient>
<linearGradient id="paint5_linear" x1="10.9061" y1="9.42335" x2="16.9118" y2="15.4291" gradientUnits="userSpaceOnUse">
<stop stop-color="#F7E07D"/>
<stop offset="1" stop-color="#E69642"/>
</linearGradient>
<linearGradient id="paint6_linear" x1="14.0308" y1="11.0856" x2="14.772" y2="14.7916" gradientUnits="userSpaceOnUse">
<stop stop-color="#D52C1C" stop-opacity="0"/>
<stop offset="0.28" stop-color="#D12C1E" stop-opacity="0.28"/>
<stop offset="0.5735" stop-color="#C42C23" stop-opacity="0.574"/>
<stop offset="0.8721" stop-color="#AF2B2C" stop-opacity="0.872"/>
<stop offset="1" stop-color="#A42B31"/>
</linearGradient>
<linearGradient id="paint7_linear" x1="9.22445" y1="15.8951" x2="58.1505" y2="64.8211" gradientUnits="userSpaceOnUse">
<stop stop-color="#5A5A5A"/>
<stop offset="1" stop-color="#464646"/>
</linearGradient>
<linearGradient id="paint8_linear" x1="73.5428" y1="80.2134" x2="37.5329" y2="44.2034" gradientUnits="userSpaceOnUse">
<stop stop-color="#464646" stop-opacity="0"/>
<stop offset="1" stop-color="#202020"/>
</linearGradient>
<linearGradient id="paint9_linear" x1="40.5" y1="59.8765" x2="40.5" y2="85.4476" gradientUnits="userSpaceOnUse">
<stop stop-color="#464646" stop-opacity="0"/>
<stop offset="1" stop-color="#202020"/>
</linearGradient>
<linearGradient id="paint10_linear" x1="31.1734" y1="37.844" x2="51.9593" y2="58.6299" gradientUnits="userSpaceOnUse">
<stop stop-color="#5A5A5A"/>
<stop offset="1" stop-color="#464646"/>
</linearGradient>
<linearGradient id="paint11_linear" x1="40.5" y1="39.1765" x2="40.5" y2="27.104" gradientUnits="userSpaceOnUse">
<stop stop-color="#464646" stop-opacity="0"/>
<stop offset="1" stop-color="#202020"/>
</linearGradient>
<linearGradient id="paint12_linear" x1="40.5" y1="52.5706" x2="40.5" y2="66.2294" gradientUnits="userSpaceOnUse">
<stop stop-color="#464646" stop-opacity="0"/>
<stop offset="1" stop-color="#202020"/>
</linearGradient>
<linearGradient id="paint13_linear" x1="34.8435" y1="41.5144" x2="56.7732" y2="63.4441" gradientUnits="userSpaceOnUse">
<stop stop-color="#464646" stop-opacity="0"/>
<stop offset="1" stop-color="#202020"/>
</linearGradient>
<linearGradient id="paint14_linear" x1="42.6624" y1="49.3327" x2="20.7327" y2="27.403" gradientUnits="userSpaceOnUse">
<stop stop-color="#464646" stop-opacity="0"/>
<stop offset="1" stop-color="#202020"/>
</linearGradient>
<linearGradient id="paint15_linear" x1="28.9061" y1="35.5763" x2="43.8566" y2="50.5269" gradientUnits="userSpaceOnUse">
<stop stop-color="#464646" stop-opacity="0"/>
<stop offset="1" stop-color="#202020"/>
</linearGradient>
<linearGradient id="paint16_linear" x1="23.6887" y1="30.3593" x2="58.9285" y2="65.5991" gradientUnits="userSpaceOnUse">
<stop stop-color="#EEF4FF"/>
<stop offset="1" stop-color="#CFE7FD"/>
</linearGradient>
<linearGradient id="paint17_linear" x1="55.2865" y1="61.957" x2="26.0495" y2="32.72" gradientUnits="userSpaceOnUse">
<stop stop-color="#EEF4FF"/>
<stop offset="1" stop-color="#CFE7FD"/>
</linearGradient>
<linearGradient id="paint18_linear" x1="40.5" y1="58.9235" x2="40.5" y2="73.5361" gradientUnits="userSpaceOnUse">
<stop stop-color="#8AAADC" stop-opacity="0"/>
<stop offset="1" stop-color="#8AAADC"/>
</linearGradient>
<linearGradient id="paint19_linear" x1="72.4235" y1="27.9529" x2="66.9575" y2="22.4869" gradientUnits="userSpaceOnUse">
<stop stop-color="#5A5A5A"/>
<stop offset="1" stop-color="#464646"/>
</linearGradient>
<clipPath id="clip0">
<rect width="81" height="81" fill="white"/>
</clipPath>
</defs>
</svg>
