<svg width="47" height="47" viewBox="0 0 47 47" fill="none" xmlns="http://www.w3.org/2000/svg">
<path d="M41.031 27.3048V5.53469C41.031 4.11163 39.8774 2.95807 38.4544 2.95807H33.4201C31.997 2.95807 30.8435 4.11163 30.8435 5.53469V27.3047H41.031V27.3048Z" fill="url(#paint0_linear)"/>
<path d="M41.031 27.3048V5.53469C41.031 4.11163 39.8774 2.95807 38.4544 2.95807H33.4201C31.997 2.95807 30.8435 4.11163 30.8435 5.53469V27.3047H41.031V27.3048Z" fill="url(#paint1_linear)"/>
<path d="M38.7811 46.4573H7.16448C5.9219 46.4573 4.9146 45.45 4.9146 44.2074V22.1107L19.2129 4.38856C21.1467 1.99169 24.7993 1.99178 26.733 4.38856L41.031 22.1106V44.2073C41.031 45.45 40.0237 46.4573 38.7811 46.4573Z" fill="url(#paint2_linear)"/>
<path d="M26.733 4.38865C24.7993 1.99179 21.1466 1.99179 19.2129 4.38865L4.91451 22.1107V30.6025L20.7694 46.4573H38.7811C40.0237 46.4573 41.031 45.45 41.031 44.2074V22.1107L26.733 4.38865Z" fill="url(#paint3_linear)"/>
<path d="M40.9384 44.8466L21.6201 25.5284C21.2624 25.0158 20.6683 24.6807 19.9964 24.6807H16.5306C15.4367 24.6807 14.5501 25.5673 14.5501 26.6613V30.127C14.5501 30.799 14.8861 31.3922 15.3977 31.7508L17.9878 34.3408L30.1043 46.4573H38.7811C39.8016 46.4573 40.6628 45.7778 40.9384 44.8466Z" fill="url(#paint4_linear)"/>
<path d="M21.6201 35.1875C21.2624 34.6758 20.6683 34.3408 19.9964 34.3408H16.5306C15.4367 34.3408 14.5501 35.2273 14.5501 36.3204V39.7862C14.5501 40.459 14.8861 41.0522 15.3977 41.4099L20.4451 46.4573H32.8894L21.6201 35.1875Z" fill="url(#paint5_linear)"/>
<path d="M41.0309 44.2133V35.3388L31.2204 25.5284C30.8627 25.0159 30.2687 24.6808 29.5967 24.6808H26.1309C25.037 24.6808 24.1504 25.5674 24.1504 26.6613V30.1271C24.1504 30.799 24.4864 31.3922 24.998 31.7508L27.5881 34.3409L39.5642 46.317C40.4189 45.9996 41.0284 45.1779 41.0309 44.2133Z" fill="url(#paint6_linear)"/>
<path d="M40.9247 44.8918L31.2204 35.1875C30.8627 34.6758 30.2687 34.3408 29.5967 34.3408H26.1309C25.037 34.3408 24.1504 35.2273 24.1504 36.3204V39.7862C24.1504 40.459 24.4864 41.0522 24.998 41.4099L30.0454 46.4573H38.7811C39.785 46.4573 40.635 45.7996 40.9247 44.8918Z" fill="url(#paint7_linear)"/>
<path d="M19.906 32.0163H16.44C15.3465 32.0163 14.46 31.1298 14.46 30.0362V26.5702C14.46 25.4767 15.3465 24.5902 16.44 24.5902H19.906C20.9995 24.5902 21.886 25.4767 21.886 26.5702V30.0362C21.8859 31.1298 20.9995 32.0163 19.906 32.0163Z" fill="url(#paint8_linear)"/>
<path d="M14.46 30.0363C14.46 31.1298 15.3465 32.0163 16.44 32.0163H19.906C20.9995 32.0163 21.886 31.1298 21.886 30.0363C21.886 29.7999 21.6944 29.6083 21.458 29.6083H14.888C14.6516 29.6084 14.46 29.7999 14.46 30.0363Z" fill="url(#paint9_linear)"/>
<path d="M29.5054 32.0163H26.0394C24.9459 32.0163 24.0594 31.1298 24.0594 30.0362V26.5702C24.0594 25.4767 24.9459 24.5902 26.0394 24.5902H29.5054C30.5989 24.5902 31.4854 25.4767 31.4854 26.5702V30.0362C31.4853 31.1298 30.5989 32.0163 29.5054 32.0163Z" fill="url(#paint10_linear)"/>
<path d="M24.0593 30.0363C24.0593 31.1298 24.9458 32.0163 26.0394 32.0163H29.5054C30.5989 32.0163 31.4854 31.1298 31.4854 30.0363C31.4854 29.7999 31.2938 29.6083 31.0574 29.6083H24.4873C24.251 29.6084 24.0593 29.7999 24.0593 30.0363Z" fill="url(#paint11_linear)"/>
<path d="M19.906 41.676H16.44C15.3465 41.676 14.46 40.7895 14.46 39.696V36.23C14.46 35.1364 15.3465 34.2499 16.44 34.2499H19.906C20.9995 34.2499 21.886 35.1364 21.886 36.23V39.696C21.8859 40.7896 20.9995 41.676 19.906 41.676Z" fill="url(#paint12_linear)"/>
<path d="M14.46 39.6961C14.46 40.7896 15.3465 41.6761 16.44 41.6761H19.906C20.9996 41.6761 21.8861 40.7896 21.8861 39.6961C21.8861 39.4597 21.6944 39.2681 21.4581 39.2681H14.888C14.6516 39.2681 14.46 39.4597 14.46 39.6961Z" fill="url(#paint13_linear)"/>
<path d="M29.5054 41.676H26.0394C24.9459 41.676 24.0594 40.7895 24.0594 39.696V36.23C24.0594 35.1364 24.9459 34.2499 26.0394 34.2499H29.5054C30.5989 34.2499 31.4854 35.1364 31.4854 36.23V39.696C31.4853 40.7896 30.5989 41.676 29.5054 41.676Z" fill="url(#paint14_linear)"/>
<path d="M24.0594 39.6961C24.0594 40.7896 24.9459 41.6761 26.0394 41.6761H29.5054C30.5989 41.6761 31.4854 40.7896 31.4854 39.6961C31.4854 39.4597 31.2938 39.2681 31.0574 39.2681H24.4873C24.251 39.2681 24.0594 39.4597 24.0594 39.6961Z" fill="url(#paint15_linear)"/>
<path d="M24.4899 11.2039L37.9924 28.6277C38.9995 29.9272 40.5511 30.6879 42.1953 30.6879C45.5066 30.6879 47.3721 26.8822 45.3437 24.2649L28.9905 3.16238C26.0034 -0.692146 20.1823 -0.692146 17.1953 3.16238L0.842112 24.2649C-1.18626 26.8822 0.679194 30.6879 3.99054 30.6879C5.63466 30.6879 7.18632 29.9272 8.19344 28.6277L21.6959 11.2039C22.4035 10.2908 23.7823 10.2908 24.4899 11.2039Z" fill="url(#paint16_linear)"/>
<path d="M3.99055 30.6878C5.63468 30.6878 7.18634 29.9272 8.19346 28.6276L21.6959 11.2038C22.4035 10.2908 23.7824 10.2908 24.4899 11.2038L37.9924 28.6276C38.9995 29.9272 40.5512 30.6878 42.1953 30.6878C43.2413 30.6878 44.1429 30.3077 44.8232 29.7056L26.9336 6.62065C24.9883 4.1105 21.1974 4.1105 19.2522 6.62065L1.36267 29.7056C2.04296 30.3077 2.94449 30.6878 3.99055 30.6878Z" fill="url(#paint17_linear)"/>
<path d="M4.91451 37.6729V44.2074C4.91451 45.45 5.92181 46.4573 7.16439 46.4573H38.781C40.0236 46.4573 41.0309 45.45 41.0309 44.2074V37.6729H4.91451Z" fill="url(#paint18_linear)"/>
<path d="M3.99054 30.6878C5.63466 30.6878 7.18632 29.9272 8.19344 28.6277L15.9601 18.6055H5.22768L0.842112 24.2648C-1.18626 26.8822 0.679194 30.6878 3.99054 30.6878Z" fill="url(#paint19_linear)"/>
<path d="M37.9923 28.6277C38.9994 29.9272 40.5511 30.6878 42.1952 30.6878C45.5066 30.6878 47.372 26.8822 45.3437 24.2648L40.958 18.6055H30.2257L37.9923 28.6277Z" fill="url(#paint20_linear)"/>
<defs>
<linearGradient id="paint0_linear" x1="29.3445" y1="9.2934" x2="37.1623" y2="17.1112" gradientUnits="userSpaceOnUse">
<stop stop-color="#5A5A5A"/>
<stop offset="1" stop-color="#464646"/>
</linearGradient>
<linearGradient id="paint1_linear" x1="40.6132" y1="11.2102" x2="37.1976" y2="14.6258" gradientUnits="userSpaceOnUse">
<stop stop-color="#464646" stop-opacity="0"/>
<stop offset="1" stop-color="#202020"/>
</linearGradient>
<linearGradient id="paint2_linear" x1="9.85421" y1="18.7745" x2="35.7924" y2="44.7128" gradientUnits="userSpaceOnUse">
<stop stop-color="#EEF4FF"/>
<stop offset="1" stop-color="#CFE7FD"/>
</linearGradient>
<linearGradient id="paint3_linear" x1="21.2776" y1="22.9295" x2="14.6676" y2="16.3195" gradientUnits="userSpaceOnUse">
<stop stop-color="#8AAADC" stop-opacity="0"/>
<stop offset="1" stop-color="#8AAADC"/>
</linearGradient>
<linearGradient id="paint4_linear" x1="26.1031" y1="36.2334" x2="14.4986" y2="24.6289" gradientUnits="userSpaceOnUse">
<stop stop-color="#8AAADC" stop-opacity="0"/>
<stop offset="1" stop-color="#8AAADC"/>
</linearGradient>
<linearGradient id="paint5_linear" x1="25.6503" y1="45.4402" x2="15.5356" y2="35.3254" gradientUnits="userSpaceOnUse">
<stop stop-color="#8AAADC" stop-opacity="0"/>
<stop offset="1" stop-color="#8AAADC"/>
</linearGradient>
<linearGradient id="paint6_linear" x1="35.7633" y1="36.2933" x2="23.8862" y2="24.4163" gradientUnits="userSpaceOnUse">
<stop stop-color="#8AAADC" stop-opacity="0"/>
<stop offset="1" stop-color="#8AAADC"/>
</linearGradient>
<linearGradient id="paint7_linear" x1="35.3106" y1="45.5002" x2="24.9235" y2="35.1131" gradientUnits="userSpaceOnUse">
<stop stop-color="#8AAADC" stop-opacity="0"/>
<stop offset="1" stop-color="#8AAADC"/>
</linearGradient>
<linearGradient id="paint8_linear" x1="15.5471" y1="25.6773" x2="20.7391" y2="30.8693" gradientUnits="userSpaceOnUse">
<stop stop-color="#76CCF8"/>
<stop offset="0.833" stop-color="#518EF8"/>
<stop offset="1" stop-color="#4981F8"/>
</linearGradient>
<linearGradient id="paint9_linear" x1="18.173" y1="30.5311" x2="18.173" y2="32.0165" gradientUnits="userSpaceOnUse">
<stop stop-color="#4071F7" stop-opacity="0"/>
<stop offset="1" stop-color="#30569F"/>
</linearGradient>
<linearGradient id="paint10_linear" x1="25.1465" y1="25.6773" x2="30.3385" y2="30.8693" gradientUnits="userSpaceOnUse">
<stop stop-color="#76CCF8"/>
<stop offset="0.833" stop-color="#518EF8"/>
<stop offset="1" stop-color="#4981F8"/>
</linearGradient>
<linearGradient id="paint11_linear" x1="27.7723" y1="30.5311" x2="27.7723" y2="32.0165" gradientUnits="userSpaceOnUse">
<stop stop-color="#4071F7" stop-opacity="0"/>
<stop offset="1" stop-color="#30569F"/>
</linearGradient>
<linearGradient id="paint12_linear" x1="15.5471" y1="35.3371" x2="20.7391" y2="40.5291" gradientUnits="userSpaceOnUse">
<stop stop-color="#76CCF8"/>
<stop offset="0.833" stop-color="#518EF8"/>
<stop offset="1" stop-color="#4981F8"/>
</linearGradient>
<linearGradient id="paint13_linear" x1="18.173" y1="40.1909" x2="18.173" y2="41.6763" gradientUnits="userSpaceOnUse">
<stop stop-color="#4071F7" stop-opacity="0"/>
<stop offset="1" stop-color="#30569F"/>
</linearGradient>
<linearGradient id="paint14_linear" x1="25.1465" y1="35.3371" x2="30.3385" y2="40.5291" gradientUnits="userSpaceOnUse">
<stop stop-color="#76CCF8"/>
<stop offset="0.833" stop-color="#518EF8"/>
<stop offset="1" stop-color="#4981F8"/>
</linearGradient>
<linearGradient id="paint15_linear" x1="27.7723" y1="40.1909" x2="27.7723" y2="41.6763" gradientUnits="userSpaceOnUse">
<stop stop-color="#4071F7" stop-opacity="0"/>
<stop offset="1" stop-color="#30569F"/>
</linearGradient>
<linearGradient id="paint16_linear" x1="5.0577" y1="6.27765" x2="37.1447" y2="38.3647" gradientUnits="userSpaceOnUse">
<stop stop-color="#76CCF8"/>
<stop offset="0.833" stop-color="#518EF8"/>
<stop offset="1" stop-color="#4981F8"/>
</linearGradient>
<linearGradient id="paint17_linear" x1="23.0929" y1="26.3529" x2="23.0929" y2="-1.89927" gradientUnits="userSpaceOnUse">
<stop stop-color="#4071F7" stop-opacity="0"/>
<stop offset="1" stop-color="#30569F"/>
</linearGradient>
<linearGradient id="paint18_linear" x1="22.9728" y1="41.6576" x2="22.9728" y2="47.0198" gradientUnits="userSpaceOnUse">
<stop stop-color="#8AAADC" stop-opacity="0"/>
<stop offset="1" stop-color="#8AAADC"/>
</linearGradient>
<linearGradient id="paint19_linear" x1="7.97999" y1="24.3106" x2="7.97999" y2="31.5417" gradientUnits="userSpaceOnUse">
<stop stop-color="#4071F7" stop-opacity="0"/>
<stop offset="1" stop-color="#30569F"/>
</linearGradient>
<linearGradient id="paint20_linear" x1="38.2058" y1="24.3106" x2="38.2058" y2="31.5417" gradientUnits="userSpaceOnUse">
<stop stop-color="#4071F7" stop-opacity="0"/>
<stop offset="1" stop-color="#30569F"/>
</linearGradient>
</defs>
</svg>
